<svg width="20" height="20" viewBox="0 0 20 20" fill="none" xmlns="http://www.w3.org/2000/svg">
<path d="M1 1L3.02379 1.35027L3.96076 12.5132C4.03568 13.4249 4.79752 14.1244 5.71212 14.1215H16.3263C17.1991 14.1235 17.9395 13.4813 18.0631 12.6173L18.9864 6.23654C19.0895 5.52335 18.5943 4.86173 17.8821 4.75859C17.8198 4.74984 3.34876 4.74497 3.34876 4.74497" stroke="#6B9AD1" stroke-width="1.5" stroke-linecap="round" stroke-linejoin="round"/>
<path d="M12.0674 8.34095H14.7654" stroke="#6B9AD1" stroke-width="1.5" stroke-linecap="round" stroke-linejoin="round"/>
<path fill-rule="evenodd" clip-rule="evenodd" d="M5.28516 17.4944C5.57802 17.4944 5.81446 17.7318 5.81446 18.0237C5.81446 18.3165 5.57802 18.5539 5.28516 18.5539C4.99229 18.5539 4.75586 18.3165 4.75586 18.0237C4.75586 17.7318 4.99229 17.4944 5.28516 17.4944Z" fill="#6B9AD1" stroke="#6B9AD1" stroke-width="1.5" stroke-linecap="round" stroke-linejoin="round"/>
<path fill-rule="evenodd" clip-rule="evenodd" d="M16.2607 17.4944C16.5536 17.4944 16.791 17.7318 16.791 18.0237C16.791 18.3165 16.5536 18.5539 16.2607 18.5539C15.9679 18.5539 15.7314 18.3165 15.7314 18.0237C15.7314 17.7318 15.9679 17.4944 16.2607 17.4944Z" fill="#6B9AD1" stroke="#6B9AD1" stroke-width="1.5" stroke-linecap="round" stroke-linejoin="round"/>
</svg>
