<svg width="18" height="18" viewBox="0 0 18 18" fill="none" xmlns="http://www.w3.org/2000/svg">
<g id="carbon:rewind-10">
<path id="Vector" d="M2.25 10.125C2.25 11.46 2.64588 12.7651 3.38758 13.8751C4.12928 14.9851 5.18349 15.8503 6.41689 16.3612C7.65029 16.8721 9.00749 17.0058 10.3169 16.7453C11.6262 16.4849 12.829 15.842 13.773 14.898C14.717 13.954 15.3598 12.7512 15.6203 11.4419C15.8808 10.1325 15.7471 8.77529 15.2362 7.54189C14.7253 6.30849 13.8601 5.25428 12.7501 4.51258C11.6401 3.77088 10.335 3.375 9 3.375H6.75V0.5625L3.375 3.9375L6.75 7.3125V4.5H9C10.1125 4.5 11.2001 4.8299 12.1251 5.44798C13.0501 6.06607 13.7711 6.94457 14.1968 7.97241C14.6226 9.00024 14.734 10.1312 14.5169 11.2224C14.2999 12.3135 13.7641 13.3158 12.9775 14.1025C12.1908 14.8891 11.1885 15.4249 10.0974 15.6419C9.00624 15.859 7.87524 15.7476 6.84741 15.3218C5.81957 14.8961 4.94107 14.1751 4.32298 13.2501C3.7049 12.3251 3.375 11.2375 3.375 10.125H2.25Z" fill="#02A3DC"/>
<path id="Vector_2" d="M11.0425 12.4481C10.794 12.4542 10.5474 12.4022 10.3225 12.2963C10.1228 12.1949 9.95094 12.0462 9.8219 11.8631C9.68044 11.6496 9.58116 11.4109 9.5294 11.16C9.46293 10.8495 9.43086 10.5326 9.43378 10.215C9.43149 9.89748 9.46355 9.58064 9.5294 9.27001C9.5822 9.01944 9.68141 8.78097 9.8219 8.56688C9.95094 8.38382 10.1228 8.23513 10.3225 8.13376C10.5474 8.0278 10.794 7.97579 11.0425 7.98188C11.2762 7.9641 11.5106 8.00646 11.7233 8.10493C11.936 8.2034 12.1199 8.35469 12.2575 8.54438C12.5476 9.04325 12.6845 9.61641 12.6513 10.1925C12.6845 10.7686 12.5476 11.3418 12.2575 11.8406C12.1251 12.0386 11.9435 12.1987 11.7305 12.3052C11.5174 12.4118 11.2803 12.461 11.0425 12.4481ZM11.0425 11.7619C11.1559 11.7687 11.2689 11.7432 11.3685 11.6885C11.468 11.6337 11.55 11.5519 11.605 11.4525C11.7395 11.1894 11.8107 10.8986 11.8131 10.6031V9.82688C11.8253 9.53676 11.7695 9.24782 11.65 8.98313C11.5871 8.8868 11.5012 8.80767 11.4001 8.75289C11.2989 8.69812 11.1857 8.66943 11.0706 8.66943C10.9556 8.66943 10.8424 8.69812 10.7412 8.75289C10.6401 8.80767 10.5542 8.8868 10.4913 8.98313C10.3718 9.24782 10.316 9.53676 10.3282 9.82688V10.6031C10.3165 10.895 10.3724 11.1857 10.4913 11.4525C10.5449 11.5506 10.6251 11.6316 10.7225 11.6863C10.82 11.741 10.9309 11.7672 11.0425 11.7619Z" fill="#02A3DC"/>
<path id="Vector_3" d="M5.97867 12.375V11.7113H7.10367V8.79189L6.05742 9.35439L5.74805 8.75814L7.05305 8.02689H7.8743V11.6831H8.87555V12.375H5.97867Z" fill="#02A3DC"/>
</g>
</svg>
