<svg width="18" height="18" viewBox="0 0 18 18" fill="none" xmlns="http://www.w3.org/2000/svg">
<path d="M15.75 11.9999V5.99993C15.7497 5.73688 15.6803 5.47853 15.5487 5.2508C15.417 5.02306 15.2278 4.83395 15 4.70243L9.75 1.70243C9.52197 1.57077 9.2633 1.50146 9 1.50146C8.7367 1.50146 8.47803 1.57077 8.25 1.70243L3 4.70243C2.7722 4.83395 2.58299 5.02306 2.45135 5.2508C2.31971 5.47853 2.25027 5.73688 2.25 5.99993V11.9999C2.25027 12.263 2.31971 12.5213 2.45135 12.7491C2.58299 12.9768 2.7722 13.1659 3 13.2974L8.25 16.2974C8.47803 16.4291 8.7367 16.4984 9 16.4984C9.2633 16.4984 9.52197 16.4291 9.75 16.2974L15 13.2974C15.2278 13.1659 15.417 12.9768 15.5487 12.7491C15.6803 12.5213 15.7497 12.263 15.75 11.9999Z" stroke="#7750F8" stroke-width="1.5" stroke-linecap="round" stroke-linejoin="round"/>
<path d="M11.7629 6.69071C11.6033 6.53102 11.4138 6.40435 11.2052 6.31792C10.9966 6.2315 10.7731 6.18701 10.5473 6.18701C10.3215 6.18701 10.0979 6.2315 9.88935 6.31792C9.68077 6.40435 9.49126 6.53102 9.33165 6.69071L9.0004 7.02196L8.66915 6.69071C8.34675 6.3683 7.90948 6.18718 7.45353 6.18718C6.99758 6.18718 6.56031 6.3683 6.2379 6.69071C5.9155 7.01311 5.73438 7.45038 5.73438 7.90633C5.73437 8.36228 5.9155 8.79955 6.2379 9.12196L6.56915 9.45321L9.0004 11.8845L11.4317 9.45321L11.7629 9.12196C11.9226 8.96235 12.0493 8.77284 12.1357 8.56426C12.2221 8.35567 12.2666 8.13211 12.2666 7.90633C12.2666 7.68055 12.2221 7.45699 12.1357 7.24841C12.0493 7.03983 11.9226 6.85032 11.7629 6.69071V6.69071Z" stroke="#7750F8" stroke-width="1.5" stroke-linecap="round" stroke-linejoin="round"/>
</svg>
