<svg width="18" height="18" viewBox="0 0 18 18" fill="none" xmlns="http://www.w3.org/2000/svg">
<g id="Iconly/Light/Ticket">
<g id="Ticket">
<g id="Group">
<path id="Stroke 1" d="M10.3877 3.18774V5.00274" stroke="#7750F8" stroke-width="1.5" stroke-linecap="round" stroke-linejoin="round"/>
<path id="Stroke 3" d="M10.3877 13.3201V14.8381" stroke="#7750F8" stroke-width="1.5" stroke-linecap="round" stroke-linejoin="round"/>
<path id="Stroke 6" d="M10.3877 10.7434V7.12769" stroke="#7750F8" stroke-width="1.5" stroke-linecap="round" stroke-linejoin="round"/>
</g>
<path id="Stroke 7" fill-rule="evenodd" clip-rule="evenodd" d="M14.0266 15C15.3931 15 16.5 13.9069 16.5 12.5574V10.613C15.5957 10.613 14.8675 9.89378 14.8675 9.00077C14.8675 8.10776 15.5957 7.38779 16.5 7.38779L16.4992 5.44264C16.4992 4.09309 15.3916 3 14.0258 3H3.97419C2.60842 3 1.50078 4.09309 1.50078 5.44264L1.5 7.45114C2.40426 7.45114 3.13251 8.10776 3.13251 9.00077C3.13251 9.89378 2.40426 10.613 1.5 10.613V12.5574C1.5 13.9069 2.60685 15 3.9734 15H14.0266Z" stroke="#7750F8" stroke-width="1.5" stroke-linecap="round" stroke-linejoin="round"/>
</g>
</g>
</svg>
