<svg width="18" height="18" viewBox="0 0 18 18" fill="none" xmlns="http://www.w3.org/2000/svg">
<g id="Wallet Icon" clip-path="url(#clip0_271_60046)">
<path id="Vector" d="M18 8.1H16.2V7.2C16.2 5.4009 14.8761 3.9231 13.1517 3.6558L12.7962 2.2626C12.4488 0.8991 11.2743 0 9.9936 0C9.7452 0 9.4923 0.0342 9.2412 0.1044L2.2302 2.079C1.0395 2.4156 0.18 3.348 0.0297 4.5H0V7.2V8.1V14.4C0 16.3881 1.6119 18 3.6 18H12.6C14.5881 18 16.2 16.3881 16.2 14.4V13.5H18V8.1ZM9.729 1.8378C9.8172 1.8126 9.9054 1.8 9.9936 1.8C10.4823 1.8 10.9161 2.1735 11.0538 2.7072L11.2806 3.6H3.6C3.5316 3.6 3.4677 3.6162 3.4002 3.6198L9.729 1.8378ZM14.4 14.4C14.4 15.3927 13.5927 16.2 12.6 16.2H3.6C2.6073 16.2 1.8 15.3927 1.8 14.4V8.1V7.2C1.8 6.2073 2.6073 5.4 3.6 5.4H12.6C13.5927 5.4 14.4 6.2073 14.4 7.2V8.1H13.5C12.0087 8.1 10.8 9.3096 10.8 10.8C10.8 12.2904 12.0087 13.5 13.5 13.5H14.4V14.4ZM16.2 11.7H13.5C13.0032 11.7 12.6 11.2968 12.6 10.8C12.6 10.3032 13.0032 9.9 13.5 9.9H16.2V11.7Z" fill="#40D04F"/>
</g>
<defs>
<clipPath id="clip0_271_60046">
<rect width="18" height="18" fill="white"/>
</clipPath>
</defs>
</svg>
