<svg width="76" height="70" viewBox="0 0 76 70" fill="none" xmlns="http://www.w3.org/2000/svg">
<path d="M33.9153 1.05517C35.7798 0.0228099 37.966 -0.265121 40.0342 0.249314C42.1024 0.76375 43.8989 2.04237 45.0625 3.82792L45.3735 4.345L74.4461 56.836C75.1325 58.0765 75.4949 59.4701 75.5 60.8878C75.505 62.3055 75.1524 63.7016 74.4748 64.9469C73.7973 66.1923 72.8166 67.2466 71.6235 68.0125C70.4304 68.7783 69.0635 69.2309 67.6491 69.3284L67.0721 69.3509H8.93438C7.51787 69.3515 6.12403 68.9952 4.88158 68.3149C3.63914 67.6346 2.58814 66.6521 1.82564 65.4584C1.06314 64.2646 0.613735 62.8979 0.518912 61.4846C0.424089 60.0712 0.686911 58.6568 1.28311 57.3719L1.55289 56.836L30.6217 4.345C31.3891 2.96101 32.5304 1.82094 33.9153 1.05517ZM38.0032 50.5899C37.5019 50.574 37.0026 50.659 36.5348 50.8399C36.067 51.0208 35.6404 51.2938 35.2802 51.6428C34.92 51.9918 34.6336 52.4096 34.438 52.8714C34.2424 53.3333 34.1416 53.8297 34.1416 54.3312C34.1416 54.8327 34.2424 55.3292 34.438 55.791C34.6336 56.2528 34.92 56.6706 35.2802 57.0196C35.6404 57.3686 36.067 57.6416 36.5348 57.8225C37.0026 58.0034 37.5019 58.0884 38.0032 58.0725C38.975 58.0418 39.8967 57.6341 40.5732 56.9358C41.2497 56.2376 41.628 55.3035 41.628 54.3312C41.628 53.3589 41.2497 52.4248 40.5732 51.7266C39.8967 51.0283 38.975 50.6206 38.0032 50.5899ZM37.9957 20.5993C37.0774 20.5995 36.1911 20.937 35.5052 21.5476C34.8193 22.1582 34.3815 22.9995 34.275 23.9116L34.2563 24.3462V43.0885L34.2825 43.5269C34.3872 44.4408 34.8245 45.2843 35.511 45.8966C36.1974 46.5089 37.0852 46.8473 38.0051 46.8473C38.925 46.8473 39.8127 46.5089 40.4992 45.8966C41.1857 45.2843 41.623 44.4408 41.7277 43.5269L41.7502 43.0885V24.3462L41.7239 23.9078C41.6165 22.9957 41.1778 22.1549 40.4912 21.5449C39.8046 20.935 38.9179 20.5985 37.9995 20.5993H37.9957Z" fill="#FF9233"/>
</svg>
