<svg width="17" height="16" viewBox="0 0 17 16" fill="none" xmlns="http://www.w3.org/2000/svg">
<path id="Vector" d="M17 4.83832C17 5.52056 16.8651 6.17988 16.5952 6.8163C16.3254 7.45272 15.9512 8.01022 15.4726 8.4888L8.62983 15.2705L7.68284 14.3387L14.5256 7.55709C15.2791 6.82394 15.6559 5.91768 15.6559 4.83832C15.6559 3.93206 15.358 3.18109 14.7624 2.5854C14.1667 1.98972 13.4157 1.69187 12.5094 1.69187C11.4708 1.69187 10.5544 2.07372 9.76011 2.83742L2.23001 10.3064C1.62923 10.9072 1.32884 11.5843 1.32884 12.3378C1.32884 12.9183 1.51722 13.3943 1.89398 13.766C2.27074 14.1376 2.74933 14.3235 3.32974 14.3235C4.09344 14.3235 4.77568 14.0231 5.37646 13.4223L11.1348 7.74038C11.6745 7.18033 11.9443 6.68647 11.9443 6.2588C11.9443 6.04496 11.8628 5.87695 11.6999 5.75476C11.537 5.63257 11.3435 5.57147 11.1195 5.57147C10.6307 5.57147 10.1929 5.77512 9.80593 6.18243L4.61276 11.3145L3.68104 10.3828L8.85894 5.25072C9.531 4.57866 10.2845 4.24263 11.1195 4.24263C11.7101 4.24263 12.2192 4.43101 12.6469 4.80777C13.0746 5.18453 13.2884 5.66311 13.2884 6.24353C13.2884 7.03777 12.8862 7.84729 12.0818 8.67209L6.32345 14.354C5.4681 15.2094 4.4702 15.637 3.32974 15.637C2.38275 15.637 1.59105 15.3239 0.954627 14.6977C0.318209 14.0714 0 13.2848 0 12.3378C0 11.2178 0.427673 10.23 1.28302 9.37469L8.81312 1.90571C9.87212 0.877262 11.1042 0.363037 12.5094 0.363037C13.7823 0.363037 14.8489 0.790709 15.7093 1.64605C16.5698 2.5014 17 3.56548 17 4.83832Z" fill="#9AA4BF"/>
</svg>
