<svg width="7" height="8" viewBox="0 0 7 8" fill="none" xmlns="http://www.w3.org/2000/svg">
<path id="Vector" d="M4.51261 3.99954L6.83985 1.6777C6.94177 1.57579 6.99902 1.43756 6.99902 1.29344C6.99902 1.14931 6.94177 1.01108 6.83985 0.909168C6.73794 0.807255 6.59972 0.75 6.45559 0.75C6.31146 0.75 6.17324 0.807255 6.07132 0.909168L3.74949 3.23642L1.42765 0.909168C1.32574 0.807255 1.18751 0.75 1.04338 0.75C0.899254 0.75 0.761029 0.807255 0.659116 0.909168C0.557202 1.01108 0.499947 1.14931 0.499947 1.29344C0.499947 1.43756 0.557202 1.57579 0.659116 1.6777L2.98636 3.99954L0.659116 6.32137C0.608388 6.37169 0.568124 6.43155 0.540647 6.4975C0.51317 6.56345 0.499023 6.63419 0.499023 6.70564C0.499023 6.77709 0.51317 6.84783 0.540647 6.91378C0.568124 6.97973 0.608388 7.03959 0.659116 7.08991C0.709429 7.14063 0.769289 7.1809 0.835241 7.20838C0.901194 7.23585 0.971935 7.25 1.04338 7.25C1.11483 7.25 1.18557 7.23585 1.25152 7.20838C1.31748 7.1809 1.37734 7.14063 1.42765 7.08991L3.74949 4.76266L6.07132 7.08991C6.12164 7.14063 6.18149 7.1809 6.24745 7.20838C6.3134 7.23585 6.38414 7.25 6.45559 7.25C6.52704 7.25 6.59778 7.23585 6.66373 7.20838C6.72968 7.1809 6.78954 7.14063 6.83985 7.08991C6.89058 7.03959 6.93085 6.97973 6.95832 6.91378C6.9858 6.84783 6.99995 6.77709 6.99995 6.70564C6.99995 6.63419 6.9858 6.56345 6.95832 6.4975C6.93085 6.43155 6.89058 6.37169 6.83985 6.32137L4.51261 3.99954Z" fill="#FF0000"/>
</svg>
