<svg width="22" height="22" viewBox="0 0 22 22" fill="none" xmlns="http://www.w3.org/2000/svg">
<g id="Send">
<mask id="mask0_737_154526" style="mask-type:luminance" maskUnits="userSpaceOnUse" x="0" y="0" width="22" height="22">
<path id="Clip 2" fill-rule="evenodd" clip-rule="evenodd" d="M11.3989 0.398926L21.9999 10.9999L11.3989 21.601L0.797903 10.9999L11.3989 0.398926Z" fill="white"/>
</mask>
<g mask="url(#mask0_737_154526)">
<path id="Fill 1" fill-rule="evenodd" clip-rule="evenodd" d="M9.76162 11.611L8.52422 16.8248C8.46986 17.0532 8.60741 17.1875 8.66993 17.2348C8.73245 17.2821 8.89827 17.3805 9.10649 17.2679L19.9897 11.3571C20.1816 11.2522 20.2028 11.0712 20.2028 10.9994C20.2039 10.9287 20.1811 10.7526 19.9962 10.6493L9.13259 4.70697C8.92654 4.59443 8.758 4.69338 8.69548 4.74068C8.63187 4.78906 8.49106 4.92552 8.54325 5.15495L9.76542 10.4579L15.5609 10.4275C15.879 10.4258 16.1389 10.6824 16.141 11.001C16.1432 11.3196 15.8855 11.5795 15.5675 11.5811L9.76162 11.611ZM7.8087 18.0112C7.43031 17.6328 7.2759 17.0935 7.40204 16.5585L8.71445 11.0305L7.41998 5.41382C7.2808 4.80817 7.50153 4.19817 7.99844 3.82195C8.49481 3.44519 9.14124 3.39789 9.68545 3.69528L20.5491 9.63759C21.0487 9.91106 21.3559 10.4324 21.357 11.0011C21.3553 11.5725 21.0427 12.0972 20.5393 12.3701L9.65664 18.2803C9.1097 18.5782 8.46328 18.5288 7.96963 18.1515C7.912 18.1069 7.85872 18.0612 7.8087 18.0112Z" fill="#40D04F"/>
</g>
</g>
</svg>
