<svg width="13" height="8" viewBox="0 0 13 8" fill="none" xmlns="http://www.w3.org/2000/svg">
<g id="Group 1017">
<path id="Vector" d="M9.22682 0.889651C9.39827 0.747301 9.62972 0.667187 9.87113 0.666629C10.1125 0.666071 10.3445 0.745114 10.5169 0.886669C10.6893 1.02822 10.7882 1.22092 10.7923 1.42309C10.7965 1.62526 10.7054 1.82067 10.5389 1.96706L5.64835 7.08733C5.5643 7.16316 5.46286 7.22401 5.35009 7.26625C5.23731 7.30849 5.11553 7.33124 4.99202 7.33316C4.8685 7.33508 4.7458 7.31611 4.63124 7.2774C4.51668 7.23869 4.41261 7.18102 4.32526 7.10785L1.08492 4.39278C0.994646 4.32232 0.922241 4.23736 0.872022 4.14296C0.821803 4.04856 0.7948 3.94665 0.792623 3.84332C0.790447 3.73999 0.813141 3.63735 0.859353 3.54152C0.905564 3.44569 0.974346 3.35865 1.06159 3.28557C1.14884 3.21249 1.25277 3.15488 1.36718 3.11617C1.48159 3.07747 1.60413 3.05846 1.7275 3.06028C1.85087 3.06211 1.97254 3.08472 2.08525 3.12679C2.19795 3.16885 2.29939 3.22949 2.38351 3.3051L4.94883 5.45274L9.20355 0.912225C9.21114 0.904275 9.21932 0.896735 9.22805 0.889651H9.22682Z" fill="#40D04F"/>
<path id="Vector 145" d="M7.29237 6.91667L11.4752 2.51287" stroke="#40D04F" stroke-width="1.5" stroke-linecap="round"/>
</g>
</svg>
