<svg width="19" height="19" viewBox="0 0 19 19" fill="none" xmlns="http://www.w3.org/2000/svg">
<path d="M10.9125 17C10.774 17.2525 10.5753 17.4622 10.3362 17.6079C10.0971 17.7536 9.82597 17.8303 9.55004 17.8303C9.2741 17.8303 9.00301 17.7536 8.76391 17.6079C8.5248 17.4622 8.32608 17.2525 8.18762 17M17.4253 13.6666H1.6748C2.3014 13.6666 2.90233 13.4032 3.34539 12.9344C3.78846 12.4656 4.03737 11.8297 4.03737 11.1666V6.99996C4.03737 5.45286 4.61817 3.96913 5.652 2.87517C6.68582 1.78121 8.08799 1.16663 9.55004 1.16663C11.0121 1.16663 12.4143 1.78121 13.4481 2.87517C14.4819 3.96913 15.0627 5.45286 15.0627 6.99996V11.1666C15.0627 11.8297 15.3116 12.4656 15.7547 12.9344C16.1977 13.4032 16.7987 13.6666 17.4253 13.6666Z" stroke="white" stroke-width="2" stroke-linecap="round" stroke-linejoin="round"/>
</svg>
