<svg width="19" height="19" viewBox="0 0 19 19" fill="none" xmlns="http://www.w3.org/2000/svg">
<path fill-rule="evenodd" clip-rule="evenodd" d="M14.9686 14.6779C12.6764 16.9702 9.28237 17.4655 6.50485 16.181C6.09482 16.0159 5.75865 15.8825 5.43907 15.8825C4.54891 15.8878 3.44091 16.7509 2.86506 16.1757C2.2892 15.5998 3.15299 14.4909 3.15299 13.5954C3.15299 13.2758 3.02485 12.9456 2.85978 12.5348C1.57466 9.75771 2.07062 6.3625 4.36273 4.07089C7.28874 1.14381 12.0426 1.14381 14.9686 4.07014C17.8998 7.00174 17.8946 11.7516 14.9686 14.6779Z" stroke="#616A82" stroke-width="1.125" stroke-linecap="round" stroke-linejoin="round"/>
<path d="M12.6197 9.6853H12.6264" stroke="#9AA4BF" stroke-width="1.5" stroke-linecap="round" stroke-linejoin="round"/>
<path d="M9.61284 9.6853H9.61959" stroke="#9AA4BF" stroke-width="1.5" stroke-linecap="round" stroke-linejoin="round"/>
<path d="M6.606 9.6853H6.61275" stroke="#9AA4BF" stroke-width="1.5" stroke-linecap="round" stroke-linejoin="round"/>
</svg>
