<svg width="14" height="17" viewBox="0 0 14 17" fill="none" xmlns="http://www.w3.org/2000/svg">
<path id="Vector" d="M9.52535 14.9H2.32812V4.5C2.32812 4.06 2.00424 3.7 1.6084 3.7C1.21255 3.7 0.888672 4.06 0.888672 4.5V14.9C0.888672 15.78 1.53642 16.5 2.32812 16.5H9.52535C9.9212 16.5 10.2451 16.14 10.2451 15.7C10.2451 15.26 9.9212 14.9 9.52535 14.9ZM13.124 11.7V2.1C13.124 1.22 12.4762 0.5 11.6845 0.5H5.20701C4.41532 0.5 3.76756 1.22 3.76756 2.1V11.7C3.76756 12.58 4.41532 13.3 5.20701 13.3H11.6845C12.4762 13.3 13.124 12.58 13.124 11.7ZM11.6845 11.7H5.20701V2.1H11.6845V11.7Z" fill="#AAAAAA"/>
</svg>
