<svg width="18" height="19" viewBox="0 0 18 19" fill="none" xmlns="http://www.w3.org/2000/svg">
<g id="cube">
<path id="Vector" d="M16.0546 5.06445L9.30462 2.06445C9.20864 2.02179 9.10478 1.99976 8.99975 1.99976C8.89472 1.99976 8.79085 2.02179 8.69487 2.06445L1.94487 5.06445C1.92987 5.0712 1.91937 5.08245 1.90437 5.0907C1.88337 5.1012 1.86087 5.10795 1.84137 5.1207C1.82487 5.13195 1.81212 5.1462 1.79637 5.1582C1.74155 5.19894 1.69346 5.24804 1.65387 5.3037C1.63887 5.3247 1.62312 5.34345 1.60962 5.36445C1.5873 5.40408 1.56824 5.44547 1.55262 5.4882C1.54587 5.50845 1.53537 5.5272 1.52937 5.54745C1.51054 5.61332 1.5007 5.68144 1.50012 5.74995V13.2499C1.50012 13.5469 1.67412 13.8147 1.94562 13.9354L8.69562 16.9354C8.79312 16.9789 8.89662 16.9999 9.00012 16.9999C9.10455 16.9973 9.20725 16.9727 9.30162 16.9279L9.30462 16.9354L16.0546 13.9354C16.1873 13.8766 16.3 13.7805 16.3791 13.6588C16.4582 13.5371 16.5002 13.3951 16.5001 13.2499V5.74995C16.5002 5.60481 16.4582 5.46277 16.3791 5.34108C16.3 5.21939 16.1873 5.12328 16.0546 5.06445ZM9.00012 3.5712L13.9036 5.74995L9.00012 7.9287L8.01912 7.49295L4.09737 5.74995L9.00012 3.5712ZM9.75012 15.0957V9.23745L15.0001 6.9042V12.7632L9.75012 15.0957Z" fill="#9AA4B6"/>
</g>
</svg>
