<svg width="20" height="20" viewBox="0 0 20 20" fill="none" xmlns="http://www.w3.org/2000/svg">
<g id="Earnings Icon" clip-path="url(#clip0_728_162979)">
<path id="Vector" fill-rule="evenodd" clip-rule="evenodd" d="M15.7784 19.6077H14.8271V17.7051H15.7784C16.8277 17.7051 17.681 16.8517 17.681 15.8024V14.8511H19.5836V15.8024C19.5836 17.9039 17.8798 19.6077 15.7784 19.6077ZM17.681 11.0459H19.5836V12.9485H17.681V11.0459ZM17.681 7.24062H19.5836V9.14324H17.681V7.24062ZM17.681 4.38667C17.681 3.33738 16.8277 2.48405 15.7784 2.48405H14.8271V0.581421H15.7784C17.8798 0.581421 19.5836 2.28522 19.5836 4.38667V5.33799H17.681V4.38667ZM8.88137 9.14324H11.2597C12.7028 9.14324 13.8758 10.4237 13.8758 11.9972C13.8758 13.5707 12.7028 14.8511 11.2597 14.8511H11.0218V15.8024H9.11919V14.8511H7.21657C6.69049 14.8511 6.26525 14.4259 6.26525 13.8998C6.26525 13.3737 6.69049 12.9485 7.21657 12.9485H9.11919H11.0218H11.2597C11.6459 12.9485 11.9731 12.5128 11.9731 11.9972C11.9731 11.4816 11.6459 11.0459 11.2597 11.0459H8.88137C7.43822 11.0459 6.26525 9.7654 6.26525 8.19193C6.26525 6.61846 7.43822 5.33799 8.88137 5.33799H9.11919V4.38667H11.0218V5.33799H12.4488C12.9749 5.33799 13.4001 5.76418 13.4001 6.2893C13.4001 6.81443 12.9749 7.24062 12.4488 7.24062H11.0218H9.11919H8.88137C8.49513 7.24062 8.16788 7.67632 8.16788 8.19193C8.16788 8.70754 8.49513 9.14324 8.88137 9.14324ZM11.0218 0.581421H12.9244V2.48405H11.0218V0.581421ZM7.21657 0.581421H9.11919V2.48405H7.21657V0.581421ZM0.557373 15.8024V14.8511H2.46V15.8024C2.46 16.8517 3.31238 17.7051 4.36263 17.7051H5.31394V19.6077H4.36263C2.26118 19.6077 0.557373 17.9039 0.557373 15.8024ZM2.46 4.38667V5.33799H0.557373V4.38667C0.557373 2.28522 2.26118 0.581421 4.36263 0.581421H5.31394V2.48405H4.36263C3.31238 2.48405 2.46 3.33738 2.46 4.38667ZM2.46 7.24062V9.14324H0.557373V7.24062H2.46ZM2.46 12.9485H0.557373V11.0459H2.46V12.9485ZM9.11919 19.6077H7.21657V17.7051H9.11919V19.6077ZM12.9244 19.6077H11.0218V17.7051H12.9244V19.6077Z" fill="white"/>
</g>
<defs>
<clipPath id="clip0_728_162979">
<rect width="19.0263" height="19.0263" fill="white" transform="translate(0.557373 0.581421)"/>
</clipPath>
</defs>
</svg>
