<svg width="15" height="16" viewBox="0 0 15 16" fill="none" xmlns="http://www.w3.org/2000/svg">
<g id="bi:exclamation-circle-fill" clip-path="url(#clip0_3779_1899)">
<path id="Vector" d="M15 8C15 9.98912 14.2098 11.8968 12.8033 13.3033C11.3968 14.7098 9.48912 15.5 7.5 15.5C5.51088 15.5 3.60322 14.7098 2.1967 13.3033C0.790176 11.8968 0 9.98912 0 8C0 6.01088 0.790176 4.10322 2.1967 2.6967C3.60322 1.29018 5.51088 0.5 7.5 0.5C9.48912 0.5 11.3968 1.29018 12.8033 2.6967C14.2098 4.10322 15 6.01088 15 8ZM7.5 4.25C7.38151 4.25007 7.26434 4.27495 7.15605 4.32306C7.04776 4.37116 6.95075 4.44141 6.87126 4.52929C6.79177 4.61717 6.73157 4.72072 6.69454 4.83328C6.65751 4.94584 6.64447 5.06491 6.65625 5.18281L6.98438 8.47062C6.9954 8.59979 7.0545 8.72011 7.14998 8.80778C7.24546 8.89546 7.37037 8.94411 7.5 8.94411C7.62963 8.94411 7.75454 8.89546 7.85002 8.80778C7.9455 8.72011 8.0046 8.59979 8.01562 8.47062L8.34375 5.18281C8.35553 5.06491 8.34249 4.94584 8.30546 4.83328C8.26843 4.72072 8.20823 4.61717 8.12874 4.52929C8.04925 4.44141 7.95224 4.37116 7.84395 4.32306C7.73566 4.27495 7.61849 4.25007 7.5 4.25ZM7.50187 9.875C7.25323 9.875 7.01478 9.97377 6.83896 10.1496C6.66315 10.3254 6.56437 10.5639 6.56437 10.8125C6.56437 11.0611 6.66315 11.2996 6.83896 11.4754C7.01478 11.6512 7.25323 11.75 7.50187 11.75C7.75052 11.75 7.98897 11.6512 8.16479 11.4754C8.3406 11.2996 8.43937 11.0611 8.43937 10.8125C8.43937 10.5639 8.3406 10.3254 8.16479 10.1496C7.98897 9.97377 7.75052 9.875 7.50187 9.875Z" fill="#9AA4BF"/>
</g>
<defs>
<clipPath id="clip0_3779_1899">
<rect width="15" height="15" fill="white" transform="translate(0 0.5)"/>
</clipPath>
</defs>
</svg>
