<svg width="20" height="20" viewBox="0 0 20 20" fill="none" xmlns="http://www.w3.org/2000/svg">
<g id="Marketplace Icon" clip-path="url(#clip0_728_162970)">
<path id="Vector" d="M18.0143 6.2893H17.5386L16.1116 0.581421H12.3064V2.48405H14.6257L15.577 6.2893H5.23052L6.18183 2.48405H8.50113V0.581421H4.69588L3.26891 6.2893H2.79325C1.743 6.2893 0.890625 7.14168 0.890625 8.19193V10.0946C0.890625 10.7966 1.27591 11.4036 1.84194 11.7337V11.9962C1.84194 11.9972 1.84194 11.9972 1.84194 11.9972L2.79325 17.7051C2.79325 18.7553 3.64563 19.6077 4.69588 19.6077H16.1116C17.1619 19.6077 18.0143 18.7553 18.0143 17.7051L18.9656 11.9972V11.7337C19.5326 11.4036 19.9169 10.7976 19.9169 10.0946V8.19193C19.9169 7.14168 19.0645 6.2893 18.0143 6.2893ZM2.79325 8.19193H18.0143V10.0946H17.0639H17.063H3.74457H3.74361H2.79325V8.19193ZM16.1373 17.3921L16.1116 17.5471V17.7051H4.69588V17.5481L4.67019 17.3921L3.7712 11.9972H17.0373L16.1373 17.3921Z" fill="white"/>
</g>
<defs>
<clipPath id="clip0_728_162970">
<rect width="19.0263" height="19.0263" fill="white" transform="translate(0.890625 0.581421)"/>
</clipPath>
</defs>
</svg>
