<svg width="48" height="48" viewBox="0 0 48 48" fill="none" xmlns="http://www.w3.org/2000/svg">
<g id="majesticons:money-plus-line">
<rect width="48" height="48" rx="24" fill="#F5F5F5"/>
<g id="Group">
<path id="Vector" d="M12 21.3333V18.6667C12 17.9594 12.281 17.2811 12.781 16.781C13.2811 16.281 13.9594 16 14.6667 16H17.3333M12 21.3333C13.7773 21.3333 17.3333 20.2667 17.3333 16M12 21.3333V26.6667M17.3333 16H30.6667M12 26.6667V29.3333C12 30.0406 12.281 30.7189 12.781 31.219C13.2811 31.719 13.9594 32 14.6667 32H17.3333M12 26.6667C13.7773 26.6667 17.3333 27.7333 17.3333 32M36 21.3333V18.6667C36 17.9594 35.719 17.2811 35.219 16.781C34.7189 16.281 34.0406 16 33.3333 16H30.6667M36 21.3333C34.2227 21.3333 30.6667 20.2667 30.6667 16M36 21.3333V29.3333C36 30.2222 35.4667 32 33.3333 32H17.3333M30.6667 32C30 32 30.6667 26.6667 36 26.6667" stroke="#9AA4BF" stroke-width="2" stroke-linecap="round" stroke-linejoin="round"/>
<path id="Vector_2" d="M23.9994 26.6678C25.4722 26.6678 26.6661 25.4739 26.6661 24.0011C26.6661 22.5284 25.4722 21.3345 23.9994 21.3345C22.5267 21.3345 21.3328 22.5284 21.3328 24.0011C21.3328 25.4739 22.5267 26.6678 23.9994 26.6678Z" stroke="#9AA4BF" stroke-width="2" stroke-linecap="round" stroke-linejoin="round"/>
</g>
</g>
</svg>
