<svg width="48" height="48" viewBox="0 0 48 48" fill="none" xmlns="http://www.w3.org/2000/svg">
<g id="majesticons:money-plus-line">
<rect width="48" height="48" rx="24" fill="#F5F5F5"/>
<g id="Group">
<path id="Vector" d="M12 19.3333V16.6667C12 15.9594 12.281 15.2811 12.781 14.781C13.2811 14.281 13.9594 14 14.6667 14H17.3333M12 19.3333C13.7773 19.3333 17.3333 18.2667 17.3333 14M12 19.3333V24.6667M36 19.3333V16.6667C36 15.9594 35.719 15.2811 35.219 14.781C34.7189 14.281 34.0406 14 33.3333 14H30.6667M36 19.3333C34.2227 19.3333 30.6667 18.2667 30.6667 14M36 19.3333V22M17.3333 14H30.6667M12 24.6667V27.3333C12 28.0406 12.281 28.7189 12.781 29.219C13.2811 29.719 13.9594 30 14.6667 30H17.3333M12 24.6667C13.7773 24.6667 17.3333 25.7333 17.3333 30M17.3333 30H22.6667" stroke="#9AA4BF" stroke-width="2" stroke-linecap="round" stroke-linejoin="round"/>
<path id="Vector_2" d="M23.9994 24.6678C25.4722 24.6678 26.6661 23.4739 26.6661 22.0011C26.6661 20.5284 25.4722 19.3345 23.9994 19.3345C22.5267 19.3345 21.3328 20.5284 21.3328 22.0011C21.3328 23.4739 22.5267 24.6678 23.9994 24.6678Z" stroke="#9AA4BF" stroke-width="2" stroke-linecap="round" stroke-linejoin="round"/>
<path id="Vector_3" d="M32.0007 26V30M32.0007 34V30M32.0007 30H28.0007M32.0007 30H36.0007" stroke="#9AA4BF" stroke-width="2" stroke-linecap="round" stroke-linejoin="round"/>
</g>
</g>
</svg>
