<svg width="24" height="8" viewBox="0 0 24 8" fill="none" xmlns="http://www.w3.org/2000/svg">
<g id="Three Dots Icon" clip-path="url(#clip0_322_2181)">
<path id="Vector" fill-rule="evenodd" clip-rule="evenodd" d="M20.7273 7.27284C18.9196 7.27284 17.4545 5.80666 17.4545 4.00011C17.4545 2.19357 18.9196 0.727386 20.7273 0.727386C22.5349 0.727386 24 2.19357 24 4.00011C24 5.80666 22.5349 7.27284 20.7273 7.27284ZM20.7273 2.9092C20.124 2.9092 19.6364 3.39684 19.6364 4.00011C19.6364 4.6023 20.124 5.09102 20.7273 5.09102C21.3295 5.09102 21.8182 4.6012 21.8182 4.00011C21.8182 3.39684 21.3295 2.9092 20.7273 2.9092ZM12 7.27284C10.1924 7.27284 8.72727 5.80666 8.72727 4.00011C8.72727 2.19357 10.1924 0.727386 12 0.727386C13.8076 0.727386 15.2727 2.19357 15.2727 4.00011C15.2727 5.80666 13.8076 7.27284 12 7.27284ZM12 2.9092C11.3967 2.9092 10.9091 3.39684 10.9091 4.00011C10.9091 4.6023 11.3967 5.09102 12 5.09102C12.6022 5.09102 13.0909 4.6012 13.0909 4.00011C13.0909 3.39684 12.6022 2.9092 12 2.9092ZM3.27273 7.27284C1.46509 7.27284 0 5.80666 0 4.00011C0 2.19357 1.46509 0.727386 3.27273 0.727386C5.07927 0.727386 6.54545 2.19357 6.54545 4.00011C6.54545 5.80666 5.07927 7.27284 3.27273 7.27284ZM3.27273 2.9092C2.66945 2.9092 2.18182 3.39684 2.18182 4.00011C2.18182 4.6023 2.66945 5.09102 3.27273 5.09102C3.87491 5.09102 4.36364 4.6012 4.36364 4.00011C4.36364 3.39684 3.87491 2.9092 3.27273 2.9092Z" fill="#9AA4BF"/>
</g>
<defs>
<clipPath id="clip0_322_2181">
<rect width="24" height="6.54545" fill="white" transform="translate(0 0.727386)"/>
</clipPath>
</defs>
</svg>
