<svg width="24" height="24" viewBox="0 0 24 24" fill="none" xmlns="http://www.w3.org/2000/svg">
<path d="M11.5 15C12.3284 15 13 14.3284 13 13.5C13 12.6716 12.3284 12 11.5 12C10.6716 12 10 12.6716 10 13.5C10 14.3284 10.6716 15 11.5 15Z" fill="#7750F8"/>
<path d="M12.3315 11H10.6683L10 6H13L12.3315 11Z" fill="#7750F8"/>
<path d="M2 7.76V20C5.37778 18.3681 9.50617 17.96 11.1481 17.9598H16.7778C20.1556 17.9598 21 15.2399 21 13.8798V7.08C21 3.272 18.1852 3.00015 16.7778 3H6.22222C2.84444 3 2 6.17333 2 7.76Z" stroke="#7750F8" stroke-width="2"/>
</svg>
