<svg width="20" height="20" viewBox="0 0 20 20" fill="none" xmlns="http://www.w3.org/2000/svg">
<g id="Revenue Icon" clip-path="url(#clip0_728_162989)">
<path id="Vector" d="M15.445 0.581421H4.02925C1.9278 0.581421 0.223999 2.28522 0.223999 4.38667V15.8024C0.223999 17.9039 1.9278 19.6077 4.02925 19.6077H15.445C17.5465 19.6077 19.2503 17.9039 19.2503 15.8024V4.38667C19.2503 2.28522 17.5465 0.581421 15.445 0.581421ZM17.3476 15.8024C17.3476 16.8517 16.4943 17.7051 15.445 17.7051H4.02925C2.97995 17.7051 2.12663 16.8517 2.12663 15.8024V4.38667C2.12663 3.33738 2.97995 2.48405 4.02925 2.48405H15.445C16.4943 2.48405 17.3476 3.33738 17.3476 4.38667V15.8024Z" fill="white"/>
<g id="Group">
<g id="Group_2">
<path id="Vector_2" fill-rule="evenodd" clip-rule="evenodd" d="M10.9263 9.14316H8.548C8.16176 9.14316 7.83451 8.70746 7.83451 8.19185C7.83451 7.67624 8.16176 7.24054 8.548 7.24054H12.1154C12.6415 7.24054 13.0667 6.81435 13.0667 6.28922C13.0667 5.7641 12.6415 5.33791 12.1154 5.33791H10.6885V4.3866H8.78583V5.33791H8.548C7.10485 5.33791 5.93188 6.61838 5.93188 8.19185C5.93188 9.76532 7.10485 11.0458 8.548 11.0458H10.9263C11.3125 11.0458 11.6398 11.4815 11.6398 11.9971C11.6398 12.5127 11.3125 12.9484 10.9263 12.9484H6.8832C6.35712 12.9484 5.93188 13.3737 5.93188 13.8997C5.93188 14.4258 6.35712 14.851 6.8832 14.851H8.78583V15.8024H10.6885V14.851H10.9263C12.3694 14.851 13.5424 13.5706 13.5424 11.9971C13.5424 10.4236 12.3694 9.14316 10.9263 9.14316Z" fill="white"/>
</g>
</g>
</g>
<defs>
<clipPath id="clip0_728_162989">
<rect width="19.0263" height="19.0263" fill="white" transform="translate(0.223999 0.581421)"/>
</clipPath>
</defs>
</svg>
