<svg width="16" height="16" viewBox="0 0 16 16" fill="none" xmlns="http://www.w3.org/2000/svg">
<path id="Vector" d="M14.9069 7.17811C15.0787 7.04682 15.2061 6.86368 15.2713 6.65435C15.3365 6.44503 15.3362 6.22001 15.2704 6.01087C15.2047 5.80172 15.0768 5.61893 14.9047 5.48812C14.7326 5.35731 14.5249 5.28505 14.3107 5.28146L10.1511 5.12024C10.1307 5.1188 10.1111 5.11131 10.0947 5.09869C10.0783 5.08607 10.0658 5.06886 10.0587 5.04912L8.62131 1.06616C8.54909 0.863525 8.41792 0.688548 8.24556 0.564924C8.0732 0.4413 7.86798 0.375 7.65767 0.375C7.44737 0.375 7.24214 0.4413 7.06978 0.564924C6.89742 0.688548 6.76625 0.863525 6.69404 1.06616L5.26129 5.06334C5.25421 5.08308 5.24172 5.1003 5.22532 5.11292C5.20891 5.12554 5.18931 5.13302 5.16886 5.13447L1.00927 5.29568C0.795105 5.29927 0.5874 5.37154 0.415284 5.50235C0.243167 5.63315 0.11527 5.81595 0.0495254 6.02509C-0.0162191 6.23424 -0.0165141 6.45925 0.0486818 6.66858C0.113878 6.8779 0.241295 7.06105 0.413068 7.19233L3.67603 9.82393C3.69236 9.83711 3.70456 9.85492 3.71114 9.87514C3.71771 9.89537 3.71836 9.91713 3.713 9.93773L2.58992 14.0203C2.53172 14.2282 2.53736 14.4494 2.60606 14.6539C2.67477 14.8584 2.80321 15.0362 2.97391 15.1631C3.14462 15.2901 3.34929 15.36 3.56009 15.3633C3.7709 15.3667 3.9776 15.3034 4.15207 15.182L7.5999 12.8111C7.61688 12.7991 7.63703 12.7927 7.65767 12.7927C7.67831 12.7927 7.69846 12.7991 7.71544 12.8111L11.1633 15.182C11.3354 15.3075 11.5413 15.375 11.7525 15.375C11.9637 15.375 12.1697 15.3075 12.3418 15.182C12.5126 15.0562 12.6411 14.8793 12.7098 14.6755C12.7785 14.4717 12.784 14.2511 12.7254 14.044L11.5931 9.94721C11.5871 9.92664 11.5874 9.90468 11.594 9.88431C11.6007 9.86395 11.6132 9.84617 11.6301 9.83341L14.9069 7.17811Z" fill="#FFC107"/>
</svg>
