<svg width="18" height="18" viewBox="0 0 18 18" fill="none" xmlns="http://www.w3.org/2000/svg">
<path d="M9 1.40625C7.4981 1.40625 6.02993 1.85162 4.78114 2.68603C3.53236 3.52044 2.55905 4.70642 1.98429 6.094C1.40954 7.48157 1.25916 9.00842 1.55217 10.4815C1.84517 11.9545 2.56841 13.3076 3.63041 14.3696C4.69242 15.4316 6.04549 16.1548 7.51854 16.4478C8.99158 16.7408 10.5184 16.5905 11.906 16.0157C13.2936 15.441 14.4796 14.4676 15.314 13.2189C16.1484 11.9701 16.5938 10.5019 16.5938 9C16.5915 6.9867 15.7907 5.0565 14.3671 3.63287C12.9435 2.20925 11.0133 1.40848 9 1.40625ZM9 14.9062C7.83186 14.9062 6.68994 14.5599 5.71867 13.9109C4.74739 13.2619 3.99037 12.3394 3.54334 11.2602C3.09631 10.181 2.97935 8.99345 3.20724 7.84775C3.43513 6.70205 3.99765 5.64965 4.82365 4.82365C5.64966 3.99765 6.70205 3.43513 7.84775 3.20724C8.99345 2.97934 10.181 3.09631 11.2602 3.54334C12.3395 3.99037 13.2619 4.74739 13.9109 5.71866C14.5599 6.68994 14.9063 7.83185 14.9063 9C14.9046 10.5659 14.2818 12.0672 13.1745 13.1745C12.0672 14.2818 10.5659 14.9046 9 14.9062ZM5.34375 7.59375C5.34375 7.37125 5.40973 7.15374 5.53335 6.96873C5.65697 6.78373 5.83267 6.63953 6.03823 6.55439C6.2438 6.46924 6.47 6.44696 6.68823 6.49037C6.90646 6.53377 7.10691 6.64092 7.26425 6.79825C7.42158 6.95559 7.52873 7.15604 7.57214 7.37427C7.61555 7.5925 7.59327 7.8187 7.50812 8.02427C7.42297 8.22984 7.27877 8.40554 7.09377 8.52915C6.90876 8.65277 6.69126 8.71875 6.46875 8.71875C6.17038 8.71875 5.88424 8.60022 5.67326 8.38925C5.46228 8.17827 5.34375 7.89212 5.34375 7.59375ZM12.6563 7.59375C12.6563 7.81625 12.5903 8.03376 12.4667 8.21877C12.343 8.40377 12.1673 8.54797 11.9618 8.63311C11.7562 8.71826 11.53 8.74054 11.3118 8.69713C11.0935 8.65373 10.8931 8.54658 10.7358 8.38925C10.5784 8.23191 10.4713 8.03146 10.4279 7.81323C10.3845 7.595 10.4067 7.3688 10.4919 7.16323C10.577 6.95766 10.7212 6.78196 10.9062 6.65835C11.0912 6.53473 11.3087 6.46875 11.5313 6.46875C11.8296 6.46875 12.1158 6.58728 12.3267 6.79825C12.5377 7.00923 12.6563 7.29538 12.6563 7.59375ZM12.427 11.6016C12.5496 11.7835 12.5965 12.006 12.5578 12.2219C12.5191 12.4378 12.3978 12.6301 12.2197 12.7581C12.0416 12.8861 11.8206 12.9398 11.6036 12.9076C11.3866 12.8755 11.1907 12.7601 11.0573 12.5859C10.823 12.259 10.5142 11.9927 10.1564 11.8089C9.79863 11.6252 9.40221 11.5293 9 11.5293C8.5978 11.5293 8.20138 11.6252 7.8436 11.8089C7.48582 11.9927 7.17697 12.259 6.94266 12.5859C6.80931 12.7601 6.61338 12.8755 6.3964 12.9076C6.17942 12.9398 5.95845 12.8861 5.78033 12.7581C5.60222 12.6301 5.48095 12.4378 5.44224 12.2219C5.40353 12.006 5.45042 11.7835 5.57297 11.6016C5.9636 11.0575 6.47816 10.6142 7.07409 10.3084C7.67003 10.0026 8.3302 9.84316 9 9.84316C9.6698 9.84316 10.33 10.0026 10.9259 10.3084C11.5218 10.6142 12.0364 11.0575 12.427 11.6016Z" fill="#FF3333"/>
</svg>
