<svg width="24" height="24" viewBox="0 0 24 24" fill="none" xmlns="http://www.w3.org/2000/svg">
<path d="M23.2932 5.1456L21.0204 1.1844C20.6088 0.4536 19.8444 0 19.026 0H4.85638C4.04398 0 3.28078 0.4512 2.86798 1.1772L0.590385 5.1456C-0.216015 6.5508 -0.272415 8.3388 0.443985 9.8124C0.884385 10.7196 1.57678 11.3928 2.39998 11.7912V19.2C2.39998 21.8508 4.54918 24 7.19999 24H16.8C19.4508 24 21.6 21.8508 21.6 19.2V11.7192C22.3704 11.3136 23.0208 10.674 23.4384 9.816C24.156 8.3436 24.1008 6.5544 23.2932 5.1456ZM2.67238 6.3468L4.85638 2.4H18.9348L21.21 6.3468C21.6216 7.0644 21.648 8.0124 21.2808 8.7684C21.1176 9.1008 20.7384 9.6744 19.9932 9.7824C19.3128 9.888 18.5496 9.5916 18.0444 8.9736L17.118 7.842L16.188 8.9724C15.318 10.032 13.7328 10.032 12.8676 8.9736L11.94 7.8384L11.0112 8.9724C10.1424 10.0332 8.55598 10.0308 7.69198 8.9736L6.76319 7.8372L5.83438 8.9736C5.32918 9.5916 4.66678 9.9012 3.86758 9.7776C3.14398 9.672 2.76358 9.0996 2.60158 8.7672C2.23438 8.01 2.26198 7.062 2.67238 6.3468ZM4.79998 12.132C5.49838 12.0288 6.17759 11.778 6.76319 11.3628C8.27878 12.4428 10.4184 12.4428 11.9388 11.3628C13.4568 12.4428 15.594 12.444 17.1168 11.3628C17.7384 11.8044 18.4524 12.0732 19.2 12.1608V16.8H4.79998V12.132ZM16.8 21.6H7.19999C5.87638 21.6 4.79998 20.5236 4.79998 19.2H19.2C19.2 20.5236 18.1236 21.6 16.8 21.6Z" fill="#7750F8"/>
</svg>
