<svg width="16" height="17" viewBox="0 0 16 17" fill="none" xmlns="http://www.w3.org/2000/svg">
<path id="Vector" d="M6.88 9.565L5.14 7.825C4.99333 7.67833 4.81013 7.60847 4.5904 7.6154C4.37013 7.6218 4.18667 7.69833 4.04 7.845C3.89333 7.99167 3.82 8.17833 3.82 8.405C3.82 8.63167 3.89333 8.81833 4.04 8.965L6.32 11.245C6.46667 11.3917 6.65333 11.465 6.88 11.465C7.10667 11.465 7.29333 11.3917 7.44 11.245L11.98 6.705C12.1267 6.55833 12.1968 6.37487 12.1904 6.1546C12.1835 5.93487 12.1067 5.75167 11.96 5.605C11.8133 5.45833 11.6267 5.385 11.4 5.385C11.1733 5.385 10.9867 5.45833 10.84 5.605L6.88 9.565ZM8 16.125C6.89333 16.125 5.85333 15.9149 4.88 15.4946C3.90667 15.0749 3.06 14.505 2.34 13.785C1.62 13.065 1.05013 12.2183 0.6304 11.245C0.210133 10.2717 0 9.23167 0 8.125C0 7.01833 0.210133 5.97833 0.6304 5.005C1.05013 4.03167 1.62 3.185 2.34 2.465C3.06 1.745 3.90667 1.17487 4.88 0.7546C5.85333 0.334867 6.89333 0.125 8 0.125C9.10667 0.125 10.1467 0.334867 11.12 0.7546C12.0933 1.17487 12.94 1.745 13.66 2.465C14.38 3.185 14.9499 4.03167 15.3696 5.005C15.7899 5.97833 16 7.01833 16 8.125C16 9.23167 15.7899 10.2717 15.3696 11.245C14.9499 12.2183 14.38 13.065 13.66 13.785C12.94 14.505 12.0933 15.0749 11.12 15.4946C10.1467 15.9149 9.10667 16.125 8 16.125ZM8 14.525C9.77333 14.525 11.2835 13.9018 12.5304 12.6554C13.7768 11.4085 14.4 9.89833 14.4 8.125C14.4 6.35167 13.7768 4.84153 12.5304 3.5946C11.2835 2.3482 9.77333 1.725 8 1.725C6.22667 1.725 4.7168 2.3482 3.4704 3.5946C2.22347 4.84153 1.6 6.35167 1.6 8.125C1.6 9.89833 2.22347 11.4085 3.4704 12.6554C4.7168 13.9018 6.22667 14.525 8 14.525Z" fill="#40D04F"/>
</svg>
