<svg width="24" height="25" viewBox="0 0 24 25" fill="none" xmlns="http://www.w3.org/2000/svg">
<g id="Frame 2891">
<circle id="Ellipse 96" cx="6.5992" cy="18.3861" r="5.39955" stroke="#9AA4BF" stroke-width="2.3998"/>
<path id="Subtract" fill-rule="evenodd" clip-rule="evenodd" d="M21.5979 11.7976H23.9977V18.997H21.5979V20.1969C21.5979 22.8475 19.4489 24.9965 16.7983 24.9965H12.0731C12.8748 24.282 13.4641 23.4334 13.9011 22.5967H16.7983C18.1218 22.5967 19.1981 21.5204 19.1981 20.1969V18.997H17.9982C16.9119 18.997 15.938 18.5156 15.278 17.7546L14.4787 16.156C14.4262 15.9114 14.3985 15.6576 14.3985 15.3973C14.3985 13.4103 16.01 11.7976 17.9982 11.7976H19.1981V10.5977C19.1981 9.27424 18.1218 8.19793 16.7983 8.19793H4.79935C3.47586 8.19793 2.39955 9.27424 2.39955 10.5977V11.0313C1.42836 11.4986 0.582766 12.1762 -0.000244141 12.8096V11.7976V10.5977V6.99803H0.0393525C0.239736 5.46216 1.38564 4.21906 2.97311 3.7703L12.3203 1.13772C12.6551 1.04413 12.9923 0.998535 13.3234 0.998535C15.0309 0.998535 16.5968 2.19723 17.0599 4.01508L17.5339 5.87253C19.8329 6.2289 21.5979 8.19913 21.5979 10.5977V11.7976ZM13.3234 3.39833C13.2058 3.39833 13.0883 3.41513 12.9707 3.44873L4.53298 5.82453C4.57237 5.82243 4.61085 5.81711 4.64931 5.81179C4.6987 5.80496 4.74808 5.79813 4.79935 5.79813H15.0393L14.7369 4.60783C14.5533 3.89629 13.975 3.39833 13.3234 3.39833ZM17.9982 16.5972H21.5979V14.1974H17.9982C17.3359 14.1974 16.7983 14.735 16.7983 15.3973C16.7983 16.0597 17.3359 16.5972 17.9982 16.5972Z" fill="#9AA4BF"/>
<path id="Vector 195" d="M6.604 15.3877V18.9874H9.0038" stroke="#9AA4BF" stroke-width="1.79985"/>
</g>
</svg>
