<svg width="24" height="24" viewBox="0 0 24 24" fill="none" xmlns="http://www.w3.org/2000/svg">
<g id="Wallet Icon" clip-path="url(#clip0_2219_207742)">
<path id="Vector" d="M24 10.8H21.6V9.6C21.6 7.2012 19.8348 5.2308 17.5356 4.8744L17.0616 3.0168C16.5984 1.1988 15.0324 0 13.3248 0C12.9936 0 12.6564 0.0456 12.3216 0.1392L2.9736 2.772C1.386 3.2208 0.24 4.464 0.0396 6H0V9.6V10.8V19.2C0 21.8508 2.1492 24 4.8 24H16.8C19.4508 24 21.6 21.8508 21.6 19.2V18H24V10.8ZM12.972 2.4504C13.0896 2.4168 13.2072 2.4 13.3248 2.4C13.9764 2.4 14.5548 2.898 14.7384 3.6096L15.0408 4.8H4.8C4.7088 4.8 4.6236 4.8216 4.5336 4.8264L12.972 2.4504ZM19.2 19.2C19.2 20.5236 18.1236 21.6 16.8 21.6H4.8C3.4764 21.6 2.4 20.5236 2.4 19.2V10.8V9.6C2.4 8.2764 3.4764 7.2 4.8 7.2H16.8C18.1236 7.2 19.2 8.2764 19.2 9.6V10.8H18C16.0116 10.8 14.4 12.4128 14.4 14.4C14.4 16.3872 16.0116 18 18 18H19.2V19.2ZM21.6 15.6H18C17.3376 15.6 16.8 15.0624 16.8 14.4C16.8 13.7376 17.3376 13.2 18 13.2H21.6V15.6Z" fill="#9AA4BF"/>
</g>
<defs>
<clipPath id="clip0_2219_207742">
<rect width="24" height="24" fill="white"/>
</clipPath>
</defs>
</svg>
