<svg width="16" height="17" viewBox="0 0 16 17" fill="none" xmlns="http://www.w3.org/2000/svg">
<g id="logos:whatsapp-icon" clip-path="url(#clip0_2750_232984)">
<path id="Vector" d="M0.462802 8.40428C0.46243 9.74859 0.813685 11.0612 1.48159 12.2182L0.398926 16.1712L4.44432 15.1104C5.56322 15.7196 6.81687 16.0387 8.09083 16.0388H8.09418C12.2998 16.0388 15.7232 12.6166 15.725 8.41029C15.7258 6.37203 14.9328 4.45538 13.4919 3.01339C12.0513 1.57153 10.1353 0.777053 8.09387 0.776123C3.88779 0.776123 0.4646 4.19814 0.462864 8.40428" fill="url(#paint0_linear_2750_232984)"/>
<path id="Vector_2" d="M0.19038 8.40177C0.189946 9.79445 0.553791 11.154 1.24551 12.3524L0.124023 16.4471L4.31447 15.3484C5.46908 15.9779 6.76905 16.3098 8.09184 16.3103H8.09525C12.4517 16.3103 15.9981 12.765 16 8.40809C16.0007 6.29659 15.1792 4.31104 13.6868 2.8174C12.1943 1.32394 10.2098 0.500868 8.09525 0.5C3.73804 0.5 0.192116 4.04481 0.19038 8.40177ZM2.68588 12.146L2.52942 11.8976C1.87168 10.8518 1.52452 9.64326 1.52502 8.40226C1.52644 4.78087 4.47367 1.83457 8.09773 1.83457C9.85277 1.83532 11.5021 2.51947 12.7427 3.76078C13.9832 5.0022 14.6658 6.65243 14.6654 8.4076C14.6637 12.029 11.7165 14.9757 8.09525 14.9757H8.09264C6.91354 14.975 5.75714 14.6584 4.74864 14.06L4.50864 13.9177L2.02195 14.5696L2.68588 12.146V12.146Z" fill="url(#paint1_linear_2750_232984)"/>
<path id="Vector_3" d="M6.11954 5.09831C5.97157 4.76944 5.81585 4.7628 5.67514 4.75704C5.55992 4.75208 5.42819 4.75245 5.2966 4.75245C5.16488 4.75245 4.95086 4.802 4.76996 4.99952C4.58888 5.19722 4.07861 5.67499 4.07861 6.64671C4.07861 7.61849 4.7864 8.5576 4.88506 8.6895C4.98385 8.82116 6.25145 10.8791 8.25902 11.6708C9.92748 12.3287 10.267 12.1978 10.6291 12.1649C10.9913 12.132 11.7977 11.6872 11.9623 11.226C12.1269 10.7649 12.1269 10.3696 12.0776 10.287C12.0282 10.2047 11.8965 10.1552 11.699 10.0565C11.5014 9.95772 10.5303 9.47989 10.3493 9.41397C10.1682 9.34811 10.0366 9.31524 9.90485 9.51301C9.77312 9.71046 9.39489 10.1552 9.27961 10.287C9.16444 10.419 9.04916 10.4354 8.8517 10.3366C8.65405 10.2375 8.01796 10.0292 7.2633 9.35642C6.67613 8.83288 6.27973 8.18637 6.1645 7.9886C6.04928 7.79115 6.15216 7.68411 6.2512 7.58569C6.33995 7.49719 6.44878 7.35505 6.54764 7.23977C6.64612 7.12442 6.67899 7.04212 6.74485 6.9104C6.81077 6.77856 6.77778 6.66321 6.72847 6.56442C6.67899 6.46563 6.29517 5.48882 6.11954 5.09831Z" fill="white"/>
</g>
<defs>
<linearGradient id="paint0_linear_2750_232984" x1="766.703" y1="1540.28" x2="766.703" y2="0.776123" gradientUnits="userSpaceOnUse">
<stop stop-color="#1FAF38"/>
<stop offset="1" stop-color="#60D669"/>
</linearGradient>
<linearGradient id="paint1_linear_2750_232984" x1="793.922" y1="1595.21" x2="793.922" y2="0.5" gradientUnits="userSpaceOnUse">
<stop stop-color="#F9F9F9"/>
<stop offset="1" stop-color="white"/>
</linearGradient>
<clipPath id="clip0_2750_232984">
<rect width="15.876" height="16" fill="white" transform="translate(0.124023 0.5)"/>
</clipPath>
</defs>
</svg>
