<svg width="18" height="18" viewBox="0 0 18 18" fill="none" xmlns="http://www.w3.org/2000/svg">
<g id="Component 723" clip-path="url(#clip0_4095_2626)">
<path id="Vector" d="M0.383945 8.89222C0.383523 10.4046 0.781773 11.8813 1.53904 13.1828L0.311523 17.63L4.89814 16.4367C6.16674 17.1219 7.58811 17.481 9.03251 17.4811H9.0363C13.8045 17.4811 17.686 13.6311 17.688 8.89899C17.6889 6.60594 16.7898 4.44971 15.1562 2.82748C13.5228 1.20538 11.3505 0.311593 9.03595 0.310547C4.26716 0.310547 0.385984 4.16031 0.384015 8.89222" fill="url(#paint0_linear_4095_2626)"/>
<path id="Vector_2" d="M0.0752342 8.88949C0.074742 10.4563 0.487265 11.9858 1.27153 13.334L0 17.9405L4.75108 16.7044C6.06015 17.4126 7.53404 17.786 9.0338 17.7866H9.03767C13.977 17.7866 17.9979 13.7981 18 8.8966C18.0008 6.52116 17.0693 4.28742 15.3773 2.60707C13.6851 0.92693 11.4351 0.000976744 9.03767 0C4.09752 0 0.077203 3.98791 0.0752342 8.88949ZM2.9046 13.1018L2.72721 12.8223C1.98147 11.6458 1.58786 10.2862 1.58843 8.89005C1.59004 4.81598 4.93157 1.5014 9.04048 1.5014C11.0303 1.50223 12.9004 2.27191 14.3069 3.66837C15.7133 5.06498 16.4873 6.92149 16.4868 8.89605C16.4849 12.9701 13.1433 16.2851 9.03767 16.2851H9.03472C7.69787 16.2844 6.38675 15.9282 5.24333 15.255L4.97123 15.0949L2.15184 15.8283L2.9046 13.1017V13.1018Z" fill="url(#paint1_linear_4095_2626)"/>
<path id="Vector_3" d="M6.79787 5.17316C6.6301 4.80318 6.45355 4.79572 6.29401 4.78923C6.16337 4.78365 6.01402 4.78406 5.86482 4.78406C5.71548 4.78406 5.47283 4.83981 5.26773 5.06202C5.06242 5.28444 4.48389 5.82193 4.48389 6.91511C4.48389 8.00837 5.28636 9.06486 5.39823 9.21325C5.51024 9.36137 6.94742 11.6765 9.22357 12.5672C11.1153 13.3073 11.5002 13.1601 11.9108 13.123C12.3214 13.086 13.2357 12.5857 13.4223 12.0668C13.609 11.548 13.609 11.1033 13.553 11.0104C13.497 10.9178 13.3477 10.8622 13.1237 10.7511C12.8997 10.64 11.7988 10.1024 11.5935 10.0283C11.3882 9.95418 11.2389 9.9172 11.0896 10.1397C10.9402 10.3618 10.5114 10.8622 10.3807 11.0104C10.2501 11.1589 10.1194 11.1774 9.89555 11.0663C9.67146 10.9548 8.95027 10.7204 8.09464 9.96353C7.42892 9.37455 6.97948 8.64723 6.84884 8.42474C6.7182 8.2026 6.83485 8.08218 6.94714 7.97146C7.04776 7.8719 7.17115 7.712 7.28323 7.5823C7.39489 7.45253 7.43215 7.35995 7.50683 7.21176C7.58157 7.06344 7.54416 6.93367 7.48826 6.82253C7.43215 6.71139 6.99699 5.61248 6.79787 5.17316Z" fill="white"/>
</g>
<defs>
<linearGradient id="paint0_linear_4095_2626" x1="8.99978" y1="17.63" x2="8.99978" y2="0.310547" gradientUnits="userSpaceOnUse">
<stop stop-color="#1FAF38"/>
<stop offset="1" stop-color="#60D669"/>
</linearGradient>
<linearGradient id="paint1_linear_4095_2626" x1="8.99998" y1="17.9405" x2="8.99998" y2="0" gradientUnits="userSpaceOnUse">
<stop stop-color="#F9F9F9"/>
<stop offset="1" stop-color="white"/>
</linearGradient>
<clipPath id="clip0_4095_2626">
<rect width="18" height="18" fill="white"/>
</clipPath>
</defs>
</svg>
